<?xml version="1.0" encoding="UTF-8" standalone="no"?>
<!-- Created with Inkscape (http://www.inkscape.org/) -->

<svg
   width="10mm"
   height="10mm"
   viewBox="0 0 10 10"
   version="1.1"
   id="svg5"
   inkscape:version="1.1.2 (0a00cf5339, 2022-02-04)"
   sodipodi:docname="Cruft.svg"
   inkscape:export-filename="/home/domtron/programming/games/redot/tarent/assets/cruft/4.png"
   inkscape:export-xdpi="101.6"
   inkscape:export-ydpi="101.6"
   xmlns:inkscape="http://www.inkscape.org/namespaces/inkscape"
   xmlns:sodipodi="http://sodipodi.sourceforge.net/DTD/sodipodi-0.dtd"
   xmlns="http://www.w3.org/2000/svg"
   xmlns:svg="http://www.w3.org/2000/svg">
  <sodipodi:namedview
     id="namedview7"
     pagecolor="#ffffff"
     bordercolor="#666666"
     borderopacity="1.0"
     inkscape:pageshadow="2"
     inkscape:pageopacity="0.0"
     inkscape:pagecheckerboard="0"
     inkscape:document-units="px"
     showgrid="false"
     height="51mm"
     inkscape:zoom="11.313709"
     inkscape:cx="10.827573"
     inkscape:cy="15.954097"
     inkscape:window-width="1920"
     inkscape:window-height="1016"
     inkscape:window-x="0"
     inkscape:window-y="0"
     inkscape:window-maximized="1"
     inkscape:current-layer="layer3" />
  <defs
     id="defs2" />
  <g
     inkscape:label="Layer 1"
     inkscape:groupmode="layer"
     id="layer1"
     style="display:none">
    <path
       style="fill:#999999;fill-opacity:1;stroke:#000000;stroke-width:0.0529167;stroke-linecap:butt;stroke-linejoin:miter;stroke-miterlimit:4;stroke-dasharray:none;stroke-opacity:1"
       d="M 2.8352062,7.3163469 C 1.5622053,1.4097679 1.5482968,1.3730494 1.5482968,1.3730494 L 3.401251,1.869547 3.0948203,3.438117 4.5134617,3.6502094 6.9011982,5.7891 Z"
       id="path2027"
       sodipodi:nodetypes="ccccccc" />
    <path
       style="fill:#999999;fill-opacity:1;stroke:#000000;stroke-width:0.0529167;stroke-linecap:butt;stroke-linejoin:miter;stroke-miterlimit:4;stroke-dasharray:none;stroke-opacity:1"
       d="M 4.8508925,7.4584522 C 6.3788614,1.6126402 6.3830097,1.5735955 6.3830097,1.5735955 L 6.978136,1.9674381 6.8318493,4.1142219 6.3858781,6.144153 5.8345947,7.5529565 Z"
       id="path3624"
       sodipodi:nodetypes="ccccccc" />
    <path
       style="fill:#444444;fill-opacity:1;stroke:#595959;stroke-width:0.265;stroke-linecap:butt;stroke-linejoin:miter;stroke-miterlimit:4;stroke-dasharray:none;stroke-opacity:1"
       d="M 9.3541891,8.4789697 C 9.0496759,8.6312936 8.7248427,8.5954089 8.4064487,8.6659561 c -0.0313,0.00692 -0.056981,0.033094 -0.085471,0.049641 -0.044878,0.017366 -0.087969,0.043066 -0.1346353,0.052097 -0.2132846,0.041263 -0.4435834,0.023976 -0.6585017,0.055078 -0.2044201,0.029587 -0.3995042,0.1453452 -0.6038919,0.1750589 -0.066295,0.00965 -0.1343041,-0.01101 -0.2004395,0 -0.05778,0.00961 -0.2299545,0.1005694 -0.2909025,0.1124382 -0.09155,0.01782 -0.1868765,-0.017328 -0.2784985,0 -0.3309859,0.0626 0.012677,0.052273 -0.2195005,0.052273 -0.5322785,0 -1.049295,-0.018577 -1.5676667,-0.1154196 C 4.0929654,8.9959344 3.8336462,8.8259584 3.5591306,8.788043 c -0.066295,-0.00916 -0.1341572,0.010632 -0.2002885,0 -0.00734,-0.0012 -0.2674,-0.1049998 -0.278649,-0.1075272 C 2.5740087,8.5668325 2.1067803,8.4008551 1.6135779,8.2333961 1.5037442,8.196104 1.3602252,8.3597037 1.266552,8.2554977 1.1883148,8.1684636 1.1480626,7.9730561 1.0387314,7.8885404 1.3706348,6.9151395 0.90958427,8.5732042 1.1065079,7.7348293 1.1615612,7.4532865 1.2786312,7.1817497 1.3706348,6.9151395 c 0.09264,-0.066306 0.016741,-0.1714268 0.042963,-0.251187 0.038178,-0.1161309 0.1041513,-0.2173033 0.1591416,-0.323982 0.2679134,-0.5197367 0.3135211,0.04282 0.4275043,0.3083707 0.1022604,0.2382383 0.4338578,0.7600491 0.4338578,1.0033439 0,0.025841 -0.00737,-0.053143 0,-0.077532 C 2.4707231,7.4530095 2.5520828,7.3700159 2.591579,7.2543815 2.6914265,6.9620511 2.8101776,6.6548098 2.9626579,6.3890845 3.096081,6.1565697 3.9449265,5.436525 4.1294449,5.3501323 c 0.1150087,-0.053847 0.2863111,0.045258 0.4067798,0.045258 0.1131619,0 0.6083477,0.2490998 0.7087249,0.3360852 0.092922,0.080526 0.2477241,0.4655923 0.3626072,0.4662395 0.039816,2.242e-4 0.073788,-0.038195 0.1133054,-0.043851 0.063857,-0.00914 0.129333,0.010556 0.1930276,0 0.3042625,-0.050423 0.5929144,-0.2690266 0.896458,-0.3280161 0.1337379,-0.025993 0.2695807,-0.030011 0.4040567,-0.052097 0.078408,-0.012883 0.3083516,-0.1119294 0.3958878,-0.049117 0.016463,0.011823 -0.012318,0.050037 0,0.067358 0.049877,0.070097 0.1292726,0.1126519 0.1662513,0.1927755 0.2711636,0.5875229 0.3117703,0.8883402 0.5014781,1.378195 0.1343481,0.3469064 -0.1849384,-4.09456 -0.0646,-3.7440708 0.058286,0.1697601 0.1009487,0.3357899 0.1715466,0.4999185 0.1249802,0.2905592 0.2614491,0.5588777 0.3716837,0.8568769 0.1208346,0.3266561 0.1937887,0.6922264 0.3449078,1.0017652 0.1786632,0.3659581 0.4643155,0.7390076 0.5560885,1.1543721 0.013068,0.059132 -0.00747,0.1227028 0,0.1831273 0.024565,0.1987575 0.096165,0.3400004 0.051887,0.5272817 -0.018868,0.0798 0.023324,0.1835699 0,0.2615362 -0.00409,0.013734 -0.1503169,0.1938003 -0.1555099,0.1999673 -0.015988,0.018974 -0.091922,-0.020546 -0.1054401,0 -0.036021,0.054759 -0.062931,0.1168232 -0.094395,0.1752348 z"
       id="path859"
       sodipodi:nodetypes="scccccccsscsccsscccccsscsssssscssccccsssssscscccss" />
    <path
       style="fill:none;stroke:#595959;stroke-width:0.265;stroke-linecap:butt;stroke-linejoin:miter;stroke-miterlimit:4;stroke-dasharray:none;stroke-opacity:1"
       d="M 5.1528173,7.3919551 C 5.2506839,7.0512266 5.3224887,7.0083686 5.5633787,6.8687078 5.7420001,6.7651485 5.8789709,6.666579 6.0863378,6.6368161 c 0.072212,-0.010367 0.1475973,0.019981 0.2182906,0 0.1920724,-0.054286 0.6070552,-0.1724446 0.7686301,-0.00632 0.00447,0.0046 0.010115,0.09227 0.01452,0.096825 0.00964,0.00995 0.025818,0 0.038728,0 0.025818,0.029937 0.051634,0.059874 0.077452,0.089809"
       id="path3701" />
  </g>
  <g
     inkscape:groupmode="layer"
     id="layer2"
     inkscape:label="Layer 2"
     style="display:none">
    <rect
       style="fill:#ea4848;fill-opacity:1;stroke:#0e0e0e;stroke-width:0.0529167;stroke-linecap:square;stroke-miterlimit:4;stroke-dasharray:none;stroke-opacity:1;paint-order:markers fill stroke"
       id="rect5302"
       width="4.8731208"
       height="2.5837512"
       x="-0.042199176"
       y="6.0626936"
       transform="rotate(-35.342284)" />
    <rect
       style="fill:#f39696;fill-opacity:1;stroke:#0e0e0e;stroke-width:0.0529167;stroke-linecap:square;stroke-miterlimit:4;stroke-dasharray:none;stroke-opacity:1;paint-order:markers fill stroke"
       id="rect5304"
       width="3.2845116"
       height="1.839416"
       x="0.1995637"
       y="6.3985033"
       ry="0.056090057"
       transform="rotate(-35.342284)" />
    <rect
       style="fill:#063813;fill-opacity:1;stroke:#0e0e0e;stroke-width:0.0529167;stroke-linecap:square;stroke-miterlimit:4;stroke-dasharray:none;stroke-opacity:1;paint-order:markers fill stroke"
       id="rect5306"
       width="0.85414016"
       height="1.4093769"
       x="3.65504"
       y="6.5093589"
       transform="rotate(-35.342284)" />
    <path
       style="fill:#444444;fill-opacity:1;stroke:#595959;stroke-width:0.23;stroke-linecap:butt;stroke-linejoin:miter;stroke-miterlimit:4;stroke-dasharray:none;stroke-opacity:1"
       d="m 0.57937037,7.1189205 c 0.14455102,0.2712187 0.38638071,0.3002385 0.59459393,0.4545454 0.043494,0.032236 0.050955,0.098532 0.072959,0.1233696 0.015063,0.017003 0.086678,0.028651 0.108586,0.041018 0.2734211,0.1543152 0.3145179,0.033713 0.6388795,0.081551 0.1657436,0.024445 0.3402805,0.063184 0.5054546,0.095171 0.3043296,0.058936 0.6102582,0.2450143 0.9098464,0.3415903 0.2039387,0.065742 0.3993005,0.1630292 0.5982844,0.2401704 0.066556,0.025803 0.1570749,-0.019498 0.2252613,0 0.1924691,0.055031 0.5378749,0.05603 0.6705328,0.1309 0.1197872,0.067606 1.2922425,-0.047826 1.5281445,0 0.4082127,0.08276 0.8218117,0.03518 1.2346088,-0.00383 0.2063891,-0.019512 0.5657836,-0.00565 0.7352581,-0.1663089 0.033114,-0.031394 -0.011574,-0.09941 0,-0.146441 0.011477,-0.046653 0.096319,-0.3309131 0.1134118,-0.3794019 0.041548,-0.1178736 0.1567276,-0.2242693 0.2181645,-0.3282919 0.014543,-0.02461 -0.01817,-0.1025412 0,-0.1230482 0.00857,-0.00967 0.027417,0.00924 0.036338,0 0.029418,-0.030484 0.1216284,-0.4675017 0.1436446,-0.5418654 0.082796,-0.2796523 -0.088341,-0.3716308 0.036336,-0.6531 0.033853,-0.076423 -0.033905,-0.2102464 0,-0.2866344 C 8.9965466,5.8927076 9.0106526,5.7783021 9.0578332,5.6717852 9.0847802,5.6109502 8.5406645,5.3279858 8.5286665,5.2745159 8.504713,5.1677953 8.4458781,5.0766187 8.4173837,4.9805013 8.2175553,4.306439 7.8803996,6.3610324 7.4747487,5.822092 7.4418924,5.7784405 7.2906243,5.7439325 7.2494875,5.7206723 7.217929,5.7028283 7.2061117,5.6540532 7.1745423,5.6362367 c -0.1568766,-0.088539 -0.8889261,0.067188 -1.1270172,0 -0.074853,-0.021122 -0.1562129,-0.04708 -0.2183066,-0.082194 -0.06099,-0.03449 -0.7235735,-0.041018 -0.788628,-0.041018 -0.014957,0 -0.099392,-0.010856 -0.1090122,0 -0.00857,0.00967 0.00857,0.03135 0,0.041018 -0.020826,0.023508 -0.4396539,0.040534 -0.4807563,0.040534 -0.1479311,0 -0.3619291,0.1115522 -0.5173777,0.047106 C 3.7998105,5.5862781 2.9892689,5.210482 2.8758373,5.2766999 2.7539301,5.3478667 2.692408,4.4322179 2.621478,4.5460172 c -0.00644,0.010331 -0.048513,-0.00731 -0.058765,0 -0.1169256,0.08338 -0.256186,0.1231105 -0.3801194,0.2094086 -0.032066,0.022329 -0.3526634,0.420618 -0.3812554,0.4636777 -0.1861941,0.28041 -0.363243,-1.0106741 -0.5038931,-0.6931496 -0.034257,0.077342 -0.038417,0.1687575 -0.072674,0.2460988 -0.015322,0.034586 -0.057353,0.047445 -0.072674,0.082033 -0.038555,0.087043 -0.037174,0.2069671 -0.072674,0.287115 -0.054337,0.1226696 -0.16310995,0.2041636 -0.21802245,0.3281311 -0.036899,0.083302 -0.024661,0.221938 -0.066854,0.3161151 -0.027453,0.061279 -0.08223,0.1034464 -0.1094372,0.164866 -0.023064,0.05207 0.49850665,-0.9006744 0.45649265,-0.8532513 -0.00856,0.00967 -0.027413,-0.00924 -0.036337,0 -0.0229,0.023728 0.010981,0.072439 0,0.1052666 C 1.0640407,5.3255626 0.94990218,5.4662252 0.88454452,5.5769226 0.77268845,5.7663753 0.7013118,5.9691985 0.59384779,6.1511525 c -0.0528735,0.089523 -0.0586133,-0.2737949 -0.109011,-0.1600187 -0.083955,0.1895349 0.0684488,0.6339059 0.14066429,0.7969367 0.0237279,0.053564 -0.0439206,0.2954544 -0.0461313,0.3308551 z"
       id="path4275"
       sodipodi:nodetypes="ccscsssscsscscccscsssscssscsssscsccscssccccscccccsssscc" />
    <path
       style="fill:none;stroke:#595959;stroke-width:0.264583px;stroke-linecap:butt;stroke-linejoin:miter;stroke-opacity:1"
       d="m 1.7735221,6.1477524 c 0.087453,0.015163 0.3626007,-0.2141992 0.4235609,-0.1886923 0.039435,0.016499 0.1651787,0.2045152 0.228007,0.2516515 0.031804,0.02386 0.060172,0.053172 0.095413,0.071583 0.039123,0.020439 0.052909,-0.016264 0.091796,0.022625 0.050998,0.050998 0.2620854,0.2229998 0.3442824,0.2229998"
       id="path4427" />
    <path
       style="fill:none;stroke:#595959;stroke-width:0.264583px;stroke-linecap:butt;stroke-linejoin:miter;stroke-opacity:1"
       d="M 7.298451,7.991559 C 7.173307,7.599201 6.8682337,7.1888672 6.5327405,6.9491616 6.2826883,6.7705027 6.5876227,7.0417705 6.3382993,6.8280647 6.2765177,6.7751091 6.0745438,6.5773154 6.0041239,6.5421054 5.9679958,6.5240423 5.763016,6.5192533 5.7536778,6.5169779 5.6635025,6.4949911 5.5642993,6.4648672 5.469573,6.4648672"
       id="path4431" />
  </g>
  <g
     inkscape:groupmode="layer"
     id="layer3"
     inkscape:label="Layer 3"
     style="display:none">
    <path
       style="fill:#444444;fill-opacity:1;stroke:#595959;stroke-width:0.165;stroke-linecap:butt;stroke-linejoin:miter;stroke-miterlimit:4;stroke-dasharray:none;stroke-opacity:1"
       d="M 0.93576711,8.2409089 C 0.97252801,8.1543195 1.0232178,7.9142937 0.98463241,7.7599522 0.96688581,7.6889655 0.92693041,7.5942486 0.88235841,7.5348196 0.86893061,7.5169166 0.84319001,7.5081256 0.83488401,7.4873456 0.81435701,7.4359892 0.79038951,7.2168322 0.81105401,7.1548392 0.8728434,6.9694711 0.98991917,6.8630361 1.0956224,6.7044811 c 0.00621,-0.00931 0.015827,-0.015828 0.023737,-0.023738 0.00791,0 0.018147,0.0056 0.023737,0 0.017697,-0.017693 0.00872,-0.051196 0.023737,-0.071212 0.053171,-0.070895 0.1367267,-0.1190026 0.1898977,-0.1898976 0.021231,-0.028308 0.027846,-0.065507 0.047474,-0.094949 0.057366,-0.086049 0.1537681,-0.1571842 0.2166021,-0.2413592 0.058842,-0.078828 0.1003773,-0.1987518 0.1692203,-0.2666728 0.013648,-0.013464 0.036765,-0.013372 0.051462,-0.025683 C 2.0259867,5.6364142 2.1894188,5.4560168 2.4020029,5.3371808 2.5246083,5.2686437 2.6564325,5.2231803 2.7863419,5.1714839 2.8978164,5.1271236 2.998334,5.0548352 3.109854,5.0105159 3.2515923,4.954188 3.3905745,4.9002908 3.5311894,4.841481 3.5677668,4.8261833 3.8409795,4.7417162 3.8735246,4.7274313 3.9521651,4.6929125 4.017133,4.632911 4.0921667,4.5911278 4.1533384,4.5570635 4.2295733,4.5321619 4.288555,4.4928409 4.3755116,4.4348696 4.4405129,4.3359126 4.5273178,4.2783716 c 0.066007,-0.043755 0.155991,-0.05928 0.212893,-0.117388 0.08618,-0.08801 -0.08024,-0.00811 0.09328,-0.09328 0.089089,-0.043728 0.2017307,-0.085334 0.2948607,-0.1228587 0.4161827,-0.16769 0.8889518,-0.097041 1.2871881,-0.2961582 0.030025,-0.015013 0.044355,-0.051069 0.071211,-0.071212 C 6.532522,3.5431457 6.583285,3.5054707 6.629174,3.4825257 6.7292465,3.4324893 6.8000895,3.2890616 6.8902833,3.2214164 7.0601294,3.0940317 7.253707,2.916051 7.3887647,2.7466721 7.4988549,2.6086055 7.6018841,2.4494503 7.7466774,2.3408209 c 0.059698,-0.044787 0.076368,-0.055911 0.1465029,-0.073715 0.0631,-0.016018 0.1865012,0 0.2473862,0 0.1514137,0 0.2880913,0.00787 0.4371915,0.027632 0.08282,0.010979 0.3287151,-0.031614 0.3919421,0 0.056304,0.028152 0.1749091,0.036478 0.2158603,0.083358 0.030166,0.034534 -0.1202333,0.3701438 -0.1565172,0.4160503 -0.089386,0.1130906 -0.2103345,0.1865971 -0.3085838,0.2848464 -0.026498,0.026498 -0.2385843,0.2654081 -0.2334779,0.2789124 0.021506,0.056866 0.1153348,0.088021 0.1426089,0.142516 0.04744,0.094789 0.085629,0.2006719 0.1452049,0.2904098 0.012378,0.018645 0.03165,0.03165 0.047474,0.047476 0.00708,0.00708 0.015623,0.012943 0.021233,0.021233 0.029829,0.044025 -0.00631,0.1815574 -0.023736,0.2164164 -0.012674,0.025344 0.012671,0.069697 0,0.095041 -1.24e-4,2.47e-4 -0.047505,0.047381 -0.047567,0.047567 -0.00502,0.01504 0.00504,0.032533 0,0.047567 -0.016003,0.04776 -0.226587,0.3229268 -0.264169,0.3605088 -0.030971,0.030971 -0.2756149,0.2512661 -0.2762234,0.2524861 -0.032849,0.065529 -0.038364,0.141171 -0.071212,0.206866 -0.0095,0.01899 0.0095,0.052223 0,0.071212 -0.022807,0.045614 -0.072142,0.073072 -0.094949,0.1186859 -0.00708,0.014154 0.00708,0.033319 0,0.047474 -0.02107,0.042139 -0.050143,0.076547 -0.071212,0.118686 -0.00708,0.014154 0.011189,0.036285 0,0.047474 -0.0056,0.0056 -0.018138,-0.0056 -0.023738,0 -0.00375,0.00375 -0.027919,0.1605659 -0.047474,0.1898979 -0.023959,0.035938 -0.049652,0.00801 -0.068059,0.045898 -0.013417,0.02762 0,0.1002093 0,0.1283293 0,0.1333074 0.1035047,0.2412791 0.2080715,0.2935626 0.028485,0.014242 0.042727,0.056969 0.071212,0.071211 0.021461,0.010732 0.059545,-0.010999 0.080855,0 0.1093049,0.056416 0.2873531,0.1200092 0.3495675,0.2546189 0.01785,0.038621 0.016015,0.1269788 0.047474,0.1898974 0.022154,0.04431 -0.022153,0.1218515 0,0.1661605 0.02444,0.048882 0.047567,0.1349433 0.047567,0.1900833 0,0.068784 -0.030107,0.2239824 0,0.2841974 0.079684,0.1593683 0.063008,0.4253367 0.1189643,0.5971392 0.021455,0.065872 -0.021899,0.1531256 0,0.2188276 0.021924,0.065773 0.019014,0.1329775 0.04766,0.1902685 0.024752,0.049505 -0.025265,0.136902 0,0.186096 0.00453,0.00883 0.022318,0.011208 0.021048,0.021048 -8.322e-4,0.00651 -0.1420517,0.057307 -0.1580007,0.065277 -0.022826,0.011414 -0.072292,-0.0076 -0.095134,0 -0.024574,0.00818 -0.047677,0.035708 -0.071212,0.047474 -0.01899,0.0095 -0.052223,-0.0095 -0.071212,0 -0.077147,0.038574 -0.1802292,0.031531 -0.2658382,0.072603 -0.032687,0.015681 -0.063476,0.065389 -0.097174,0.076589 -0.2117198,0.070364 -0.4982419,0.073344 -0.7264886,0.073344 -0.1110377,0 -0.373841,-0.034009 -0.471777,0 -0.018998,0.0066 -0.034007,0.024492 -0.053965,0.026982 -0.1513337,0.018764 -0.3095567,-0.016902 -0.4611137,0 -0.087756,0.00979 -0.5200693,0.1962873 -0.6089153,0.2407103 -0.082249,0.041125 -0.8283581,-0.046961 -0.9207441,-0.05823 -0.096122,-0.011724 -0.1942627,0.010713 -0.2905027,0 C 4.0482108,9.0050378 5.0959707,9.0290568 4.1291618,9.0290568 3.9051235,9.0127474 3.6963278,8.9222209 3.4765739,8.8938659 3.3289428,8.8748199 3.1779755,8.8901719 3.0313156,8.8664199 2.9892203,8.8596019 2.9464863,8.8539899 2.9060463,8.8404569 2.8008423,8.8052529 3.0023641,8.8190889 2.8334443,8.7921479 2.7243032,8.7747409 2.6122434,8.7682499 2.5065012,8.7418919 2.4011661,8.7156355 2.3208071,8.6562255 2.2211911,8.6230205 c -0.042767,-0.014256 -0.099957,0.014565 -0.1426087,0 C 1.9546413,8.5806985 1.8177975,8.5692835 1.6858057,8.5401255 1.4479481,8.487581 1.2445804,8.395967 1.0070698,8.40614 0.98330224,8.351063 0.95953467,8.2959859 0.93576711,8.2409089 Z"
       id="path4620" />
    <path
       style="fill:none;stroke:#595959;stroke-width:0.264583px;stroke-linecap:butt;stroke-linejoin:miter;stroke-opacity:1"
       d="m 1.7082448,8.3327813 c 0.015376,-0.075432 0.1070423,-0.085513 0.1477085,-0.1397341 0.056292,-0.075056 0.069146,-0.088753 0.094949,-0.1661605 0.015012,-0.045037 0.022509,-0.012716 0.047196,-0.023738 0.036241,-0.016177 0.046372,-0.070109 0.063979,-0.087716 0.036652,-0.036652 0.2250152,-0.1364956 0.2768723,-0.1169241 0.057979,0.021881 0.1126789,0.2591157 0.130091,0.2962515 0.019991,0.042637 0.042839,0.00498 0.069543,0.020955 0.067575,0.040413 0.1276021,0.1242592 0.1887851,0.1650476 0.030036,0.020024 0.1383123,0.1617364 0.1868379,0.1409399 0.088786,-0.038052 0.3135908,-0.056059 0.3135908,0.082987"
       id="path4771" />
    <path
       style="fill:none;stroke:#595959;stroke-width:0.264583px;stroke-linecap:butt;stroke-linejoin:miter;stroke-opacity:1"
       d="m 2.7593581,5.171745 c 0.1136369,0.1149768 0.1082963,0.093365 0.1734857,0.1988921 0.079739,0.1290785 0.161644,0.2432663 0.2555459,0.3604162 0.1278202,0.1594649 -0.017658,-0.013526 0.023736,0.069264 0.013854,0.027706 0.055412,0.041559 0.069265,0.069264 0.00708,0.014155 -0.0108,0.035907 0,0.047474 0.018841,0.02018 0.096806,0.087163 0.1193353,0.109692 0.048296,0.048296 0.079633,0.1053179 0.1260112,0.1516954 0.00562,0.00562 0.073102,0.067146 0.071212,0.071212 -0.012891,0.027726 -0.045819,0.040928 -0.064907,0.064814 C 3.4094446,6.4691309 3.3779153,6.7565502 3.3779153,6.9517579"
       id="path4773" />
    <path
       style="fill:none;stroke:#595959;stroke-width:0.264583px;stroke-linecap:butt;stroke-linejoin:miter;stroke-opacity:1"
       d="M 5.2941402,6.7909754 C 5.4480607,6.5563982 5.6038969,6.2642109 5.885716,6.1567467 6.0053603,6.1111235 6.150702,6.0796558 6.2631933,6.0234102 c 0.012316,-0.00616 0.078244,0 0.086325,0 0.00989,0 0.064782,-0.00633 0.071212,0 0.025223,0.024831 -0.012478,0.1797992 0.071211,0.1374163 0.1069261,-0.05415 0.1804286,-0.092291 0.3049675,-0.1224878 0.037456,-0.00908 0.081166,-0.00731 0.1166463,-0.023738 0.06646,-0.030769 0.1194308,-0.081066 0.1860031,-0.1145135 0.035889,-0.018031 0.2906708,-0.00826 0.3236979,0 0.056446,0.014113 0.1601076,0.1838449 0.2133566,0.2370939"
       id="path4775" />
    <path
       style="fill:none;stroke:#595959;stroke-width:0.264583px;stroke-linecap:butt;stroke-linejoin:miter;stroke-opacity:1"
       d="M 6.790419,3.7577119 C 7.3283616,4.1742815 7.9043561,4.5251555 8.5301896,4.7890752"
       id="path4777" />
    <path
       id="path12441"
       style="fill:#ce7413;fill-opacity:1;stroke:#000000;stroke-width:0.0378508;stroke-linecap:square;stroke-opacity:1;paint-order:markers fill stroke"
       d="M 7.4381628,5.733417 A 1.023438,0.71338974 43.609969 0 1 6.3029364,5.4648968 1.023438,0.71338974 43.609969 0 1 5.9751258,4.3525473 1.023438,0.71338974 43.609969 0 0 5.8772515,4.431315 1.023438,0.71338974 43.609969 0 0 6.1262329,5.6541349 1.023438,0.71338974 43.609969 0 0 7.3593158,5.8431575 1.023438,0.71338974 43.609969 0 0 7.4381628,5.733417 Z" />
    <path
       id="path13629"
       style="fill:#ce7413;fill-opacity:1;stroke:#000000;stroke-width:0.0378508;stroke-linecap:square;stroke-opacity:1;paint-order:markers fill stroke"
       d="M 7.5662249,5.5911384 A 1.023438,0.71338974 43.609969 0 1 6.4309984,5.322618 1.023438,0.71338974 43.609969 0 1 6.1031878,4.2102687 a 1.023438,0.71338974 43.609969 0 0 -0.097874,0.078768 1.023438,0.71338974 43.609969 0 0 0.2489813,1.22282 1.023438,0.71338974 43.609969 0 0 1.233083,0.1890225 1.023438,0.71338974 43.609969 0 0 0.078847,-0.1097408 z" />
    <path
       id="path13631"
       style="fill:#ce7413;fill-opacity:1;stroke:#000000;stroke-width:0.0378508;stroke-linecap:square;stroke-opacity:1;paint-order:markers fill stroke"
       d="M 7.7045553,5.4076848 A 1.023438,0.71338974 43.609969 0 1 6.5693289,5.1391645 1.023438,0.71338974 43.609969 0 1 6.2415182,4.0268151 a 1.023438,0.71338974 43.609969 0 0 -0.097874,0.078768 1.023438,0.71338974 43.609969 0 0 0.2489813,1.22282 1.023438,0.71338974 43.609969 0 0 1.2330831,0.1890225 1.023438,0.71338974 43.609969 0 0 0.078847,-0.1097408 z" />
    <path
       id="path13633"
       style="fill:#ce7413;fill-opacity:1;stroke:#000000;stroke-width:0.0378508;stroke-linecap:square;stroke-opacity:1;paint-order:markers fill stroke"
       d="M 7.903015,5.1984933 A 1.023438,0.71338974 43.609969 0 1 6.7677886,4.9299729 1.023438,0.71338974 43.609969 0 1 6.4399779,3.8176236 a 1.023438,0.71338974 43.609969 0 0 -0.097874,0.078768 1.023438,0.71338974 43.609969 0 0 0.2489813,1.22282 1.023438,0.71338974 43.609969 0 0 1.233083,0.1890225 1.023438,0.71338974 43.609969 0 0 0.078847,-0.1097408 z" />
    <ellipse
       style="fill:#ce7413;fill-opacity:1;stroke:#000000;stroke-width:0.0529167;stroke-linecap:square;stroke-miterlimit:4;stroke-dasharray:none;stroke-opacity:1;paint-order:markers fill stroke"
       id="path13657"
       cx="8.3026762"
       cy="-1.6755695"
       rx="1.0131469"
       ry="0.55720091"
       transform="rotate(43.609969)" />
    <ellipse
       style="fill:#444444;fill-opacity:1;stroke:#000000;stroke-width:0.039125;stroke-linecap:square;stroke-miterlimit:4;stroke-dasharray:none;stroke-opacity:1;paint-order:markers fill stroke"
       id="ellipse13741"
       cx="8.3039408"
       cy="-1.7200694"
       rx="0.75943184"
       ry="0.40636754"
       transform="rotate(43.609969)" />
    <path
       id="path14287"
       style="fill:#ce7413;fill-opacity:1;stroke:#000000;stroke-width:0.0378508;stroke-linecap:square;stroke-opacity:1;paint-order:markers fill stroke"
       d="M 3.1382007,6.3078895 A 0.71338974,1.023438 50.022572 0 1 2.7445697,7.406023 0.71338974,1.023438 50.022572 0 1 1.6025676,7.607547 0.71338974,1.023438 50.022572 0 0 1.6699115,7.7136061 0.71338974,1.023438 50.022572 0 0 2.9128889,7.6027563 0.71338974,1.023438 50.022572 0 0 3.2384487,6.3984997 0.71338974,1.023438 50.022572 0 0 3.1382007,6.3078895 Z" />
    <path
       id="path14289"
       style="fill:#ce7413;fill-opacity:1;stroke:#000000;stroke-width:0.0378508;stroke-linecap:square;stroke-opacity:1;paint-order:markers fill stroke"
       d="M 2.9713447,6.1499351 A 0.71338974,1.023438 50.022572 0 1 2.5777138,7.2480685 0.71338974,1.023438 50.022572 0 1 1.4357116,7.4495926 0.71338974,1.023438 50.022572 0 0 1.5030555,7.5556517 0.71338974,1.023438 50.022572 0 0 2.7460329,7.4448019 0.71338974,1.023438 50.022572 0 0 3.0715927,6.2405452 0.71338974,1.023438 50.022572 0 0 2.9713447,6.1499351 Z" />
    <path
       id="path14291"
       style="fill:#ce7413;fill-opacity:1;stroke:#000000;stroke-width:0.0378508;stroke-linecap:square;stroke-opacity:1;paint-order:markers fill stroke"
       d="M 2.7856275,5.929353 A 0.71338974,1.023438 50.022572 0 1 2.3919965,7.0274864 0.71338974,1.023438 50.022572 0 1 1.2499944,7.2290105 0.71338974,1.023438 50.022572 0 0 1.3173383,7.3350696 0.71338974,1.023438 50.022572 0 0 2.5603157,7.2242198 0.71338974,1.023438 50.022572 0 0 2.8858755,6.0199632 0.71338974,1.023438 50.022572 0 0 2.7856275,5.929353 Z" />
    <ellipse
       style="fill:#ce7413;fill-opacity:1;stroke:#000000;stroke-width:0.0529167;stroke-linecap:square;stroke-miterlimit:4;stroke-dasharray:none;stroke-opacity:1;paint-order:markers fill stroke"
       id="ellipse14293"
       cx="-2.6800597"
       cy="6.3448958"
       rx="1.0131469"
       ry="0.55720091"
       transform="rotate(-39.977428)" />
    <ellipse
       style="fill:#444444;fill-opacity:1;stroke:#000000;stroke-width:0.039125;stroke-linecap:square;stroke-miterlimit:4;stroke-dasharray:none;stroke-opacity:1;paint-order:markers fill stroke"
       id="ellipse14295"
       cx="-2.6787951"
       cy="6.3003964"
       rx="0.75943184"
       ry="0.40636754"
       transform="rotate(-39.977428)" />
    <path
       id="path14575"
       style="fill:#ce7413;fill-opacity:1;stroke:#000000;stroke-width:0.0378508;stroke-linecap:square;stroke-opacity:1;paint-order:markers fill stroke"
       d="M 6.4490604,8.0797496 A 0.71338974,1.023438 84.105254 0 1 5.5076619,8.7686701 0.71338974,1.023438 84.105254 0 1 4.44889,8.2956132 0.71338974,1.023438 84.105254 0 0 4.4452319,8.4211932 0.71338974,1.023438 84.105254 0 0 5.5368217,9.0259346 0.71338974,1.023438 84.105254 0 0 6.4813118,8.2109735 0.71338974,1.023438 84.105254 0 0 6.4490604,8.0797496 Z" />
    <path
       id="path14577"
       style="fill:#ce7413;fill-opacity:1;stroke:#000000;stroke-width:0.0378508;stroke-linecap:square;stroke-opacity:1;paint-order:markers fill stroke"
       d="M 6.3993811,7.8554228 A 0.71338974,1.023438 84.105254 0 1 5.4579828,8.5443433 0.71338974,1.023438 84.105254 0 1 4.3992107,8.0712864 0.71338974,1.023438 84.105254 0 0 4.3955526,8.1968665 0.71338974,1.023438 84.105254 0 0 5.4871425,8.8016079 0.71338974,1.023438 84.105254 0 0 6.4316326,7.9866467 0.71338974,1.023438 84.105254 0 0 6.3993811,7.8554228 Z" />
    <path
       id="path14579"
       style="fill:#ce7413;fill-opacity:1;stroke:#000000;stroke-width:0.0378508;stroke-linecap:square;stroke-opacity:1;paint-order:markers fill stroke"
       d="M 6.3691763,7.5686564 A 0.71338974,1.023438 84.105254 0 1 5.4277779,8.2575768 0.71338974,1.023438 84.105254 0 1 4.3690059,7.78452 0.71338974,1.023438 84.105254 0 0 4.3653478,7.9101 0.71338974,1.023438 84.105254 0 0 5.4569377,8.5148414 0.71338974,1.023438 84.105254 0 0 6.4014278,7.6998803 0.71338974,1.023438 84.105254 0 0 6.3691763,7.5686564 Z" />
    <ellipse
       style="fill:#ce7413;fill-opacity:1;stroke:#000000;stroke-width:0.0529167;stroke-linecap:square;stroke-miterlimit:4;stroke-dasharray:none;stroke-opacity:1;paint-order:markers fill stroke"
       id="ellipse14581"
       cx="4.5530319"
       cy="8.1942787"
       rx="1.0131469"
       ry="0.55720091"
       transform="rotate(-5.8947457)" />
    <ellipse
       style="fill:#444444;fill-opacity:1;stroke:#000000;stroke-width:0.039125;stroke-linecap:square;stroke-miterlimit:4;stroke-dasharray:none;stroke-opacity:1;paint-order:markers fill stroke"
       id="ellipse14583"
       cx="4.5542965"
       cy="8.1497793"
       rx="0.75943184"
       ry="0.40636754"
       transform="rotate(-5.8947457)" />
  </g>
  <g
     inkscape:groupmode="layer"
     id="layer4"
     inkscape:label="Layer 4"
     style="display:inline">
    <rect
       style="fill:#18c9aa;fill-opacity:1;stroke:none;stroke-width:0.0529167;stroke-linecap:square;stroke-miterlimit:4;stroke-dasharray:none;stroke-opacity:1;paint-order:markers fill stroke"
       id="rect8108"
       width="0.32822734"
       height="4.1019282"
       x="4.9112954"
       y="-0.87415123"
       transform="rotate(18.456627)" />
    <rect
       style="fill:#18c9aa;fill-opacity:1;stroke:none;stroke-width:0.0529167;stroke-linecap:square;stroke-miterlimit:4;stroke-dasharray:none;stroke-opacity:1;paint-order:markers fill stroke"
       id="rect8110"
       width="0.32822734"
       height="4.1019282"
       x="9.1446295"
       y="-0.87415123"
       transform="rotate(18.456627)" />
    <rect
       style="fill:#5b867e;fill-opacity:1;stroke:none;stroke-width:0.0529167;stroke-linecap:square;stroke-miterlimit:4;stroke-dasharray:none;stroke-opacity:1;paint-order:markers fill stroke"
       id="rect8214"
       width="3.8963869"
       height="0.40446046"
       x="5.2395229"
       y="-0.87415123"
       transform="rotate(18.456627)" />
    <rect
       style="fill:#5b867e;fill-opacity:1;stroke:none;stroke-width:0.0529167;stroke-linecap:square;stroke-miterlimit:4;stroke-dasharray:none;stroke-opacity:1;paint-order:markers fill stroke"
       id="rect8216"
       width="3.8963869"
       height="0.40446046"
       x="5.2395229"
       y="0.1841822"
       transform="rotate(18.456627)" />
    <rect
       style="fill:#5b867e;fill-opacity:1;stroke:none;stroke-width:0.0529167;stroke-linecap:square;stroke-miterlimit:4;stroke-dasharray:none;stroke-opacity:1;paint-order:markers fill stroke"
       id="rect8298"
       width="3.8963869"
       height="0.40446046"
       x="5.2395229"
       y="1.2425156"
       transform="rotate(18.456627)" />
    <rect
       style="fill:#5b867e;fill-opacity:1;stroke:none;stroke-width:0.0529167;stroke-linecap:square;stroke-miterlimit:4;stroke-dasharray:none;stroke-opacity:1;paint-order:markers fill stroke"
       id="rect8300"
       width="3.8963869"
       height="0.40446046"
       x="-0.75892329"
       y="3.4054255"
       transform="rotate(-29.465041)" />
    <path
       style="fill:#444444;fill-opacity:1;stroke:#595959;stroke-width:0.171;stroke-linecap:butt;stroke-linejoin:miter;stroke-miterlimit:4;stroke-dasharray:none;stroke-opacity:1"
       d="m 6.457528,3.2532601 c 0.076506,-0.030631 0.2989063,0.03262 0.4255398,0.038443 0.074842,0.00344 0.1737196,-0.044449 0.2506101,-0.018859 0.092003,0.03062 1.1782621,0.2350621 1.2835068,0.3165295 0.439591,0.3402771 0.681464,0.1603984 0.8689814,0.4458876 0.084203,0.128197 0.1621097,-0.3291793 0.2723786,-0.1983433 0.018982,0.022523 -0.00146,0.1134657 0.012992,0.1459508 0.053994,0.1214075 0.1530633,0.2603189 0.1932315,0.3760908 0.027097,0.078117 -0.022335,0.080384 -0.058741,0.1242856 -0.021965,0.026475 -0.00341,0.073749 -0.013428,0.1065378 -0.047895,0.1567847 -0.05643,0.1913676 -0.3222577,0.2234932 -0.070483,0.00852 -0.08843,0.075927 -0.1770674,0.070893 -0.064727,-0.00368 -0.1723582,-0.049699 -0.2437484,-0.059269 -0.088866,-0.011913 0.013656,0.4401737 -0.052431,0.4481087 -0.1242717,0.014922 -0.018263,0.1944149 -0.00989,0.2674906 0.00595,0.051919 -0.080815,0.077603 -0.07604,0.1312142 0.011258,0.1264829 -0.024894,-0.8242249 -0.014403,-0.7063733 0.00182,0.020512 0.05098,0.059172 0.052734,0.079654 0.010453,0.1224646 0.1170511,0.2884522 0.1273602,0.4042353 0.00346,0.038921 0.1020044,0.1203885 0.105469,0.1593091 0.00383,0.04302 0.099146,0.1437943 0.093422,0.1832226 -0.00216,0.014855 -0.094799,0.011588 -0.080055,0.032052 0.044084,0.061182 0.1545801,0.1295552 0.2263664,0.1975016 0.1184701,0.1121362 -0.3596969,-0.2513085 -0.293629,-0.151514 0.013759,0.020784 0.1608696,0.098646 0.1936153,0.1240174 0.027159,0.02104 0.5627393,0.4731357 0.5626928,0.4735916 -0.00636,0.071919 -0.02193,0.1432451 -0.079884,0.1912049 -0.020692,0.017125 -0.080164,0.011422 -0.088318,0.035361 C 9.5034011,7.0261151 8.983132,7.1434035 8.574233,7.3071166 8.3015739,7.4162826 8.020454,7.4598118 7.6202823,7.5016896 c -0.064339,0.00673 -0.08548,0.054788 -0.1912726,0.021474 -0.016608,-0.00523 -0.031796,-0.025778 -0.048404,-0.031005 -0.059172,-0.018633 -0.1212045,0.058767 -0.1542562,0.06176 C 7.0769207,7.5674527 6.8650846,7.5348468 6.6979628,7.5348082 6.5128972,7.5347654 6.3454826,7.5485564 6.1642025,7.5515035 5.5904709,7.560831 4.8642856,7.5425137 3.9477129,7.1980291 3.8030048,7.1436421 3.667723,7.1219535 3.5214939,7.0638144 3.3160973,6.9821514 3.1186681,6.8737171 2.9102166,6.7905446 2.7009113,6.7070312 2.4745204,6.6208922 2.2709129,6.5279065 c -0.040288,-0.018404 0.060453,-0.045854 0.07389,-0.051234 0.05622,-0.022509 0.244383,0.085584 0.2897596,0.067416 0.02195,-0.00879 0.043899,-0.017576 0.065851,-0.026365 0.00816,-0.00327 0.060984,0.015496 0.043061,0.00402 C 2.4709315,6.3471662 2.1939127,6.6267259 2.0523645,6.459666 1.9207859,6.3043735 1.879274,6.1917508 1.718252,6.0392123 1.6285268,5.9542145 1.6497779,5.885245 1.5600481,5.800249 1.4271452,5.6743482 1.3534358,5.5437246 1.2509985,5.4179806 1.1188703,5.3454132 0.82519255,5.3273713 0.70851222,5.0045293 c -0.0330736,-0.098883 0.038867,-0.1532577 0.0311984,-0.2403998 -0.008582,-0.097519 -0.0550428,-0.2273672 -5.816e-4,-0.29597 0.0129507,-0.016307 0.0644446,-0.01001 0.0723932,-0.028984 C 0.85499863,4.3354209 0.7961197,4.1849341 0.80350676,4.0647013 0.82252846,3.7550825 1.0349751,4.0759673 1.1227653,3.8069188 1.1298284,3.7852426 1.022466,3.7154491 1.0920698,3.7184412 1.1468727,3.6270229 1.3929583,3.5979728 1.5130031,3.5499098 1.8751016,3.4049345 1.5601902,3.5512455 1.8356008,3.3622958 1.9636599,3.2744346 2.2221102,3.7909136 2.3321127,3.6926711 2.6029837,3.4507563 2.9230169,3.2373505 3.3966056,3.1155194 3.5797675,3.0684018 3.8276262,3.5956838 4.0248965,3.5582595 4.4889085,3.4702292 4.8755594,3.3655922 5.400725,3.320934 5.9292518,3.275992 5.6229637,3.354784 6.0659173,3.260474 6.1634143,3.239714 6.2297335,3.196036 6.2590521,3.1347315 Z"
       id="path4967"
       sodipodi:nodetypes="csssssccccccsssccccscccsccssscsccssssscscccsscccscccccscccccccc" />
    <path
       style="fill:none;stroke:#595959;stroke-width:0.264583px;stroke-linecap:butt;stroke-linejoin:miter;stroke-opacity:1"
       d="M 1.6960512,4.4128154 C 1.9095148,4.3011773 2.063044,4.0573204 2.26083,4.2765118 c 0.03556,0.039409 0.1216195,-0.068287 0.1767311,-0.02114 0.047272,0.04044 0.062742,0.1571347 0.1301837,0.2245762 0.069452,0.069452 0.1896195,0.1489745 0.1896195,0.2491481"
       id="path18252" />
    <path
       style="fill:none;stroke:#595959;stroke-width:0.264583px;stroke-linecap:butt;stroke-linejoin:miter;stroke-opacity:1"
       d="m 4.2523917,6.2538281 c 0.047984,-0.031455 0.1063419,0.013864 0.1567027,0 0.3991597,-0.1098846 0.7433384,-0.2188289 1.1683158,-0.2362594 0.1257962,-0.00516 0.6626813,0.083748 0.7796192,0.1423305 0.049531,0.024813 0.1545619,-0.00887 0.2075151,0 0.02863,0.00479 0.054179,0.021714 0.082617,0.027539 0.1345999,0.02757 0.2854968,-0.026196 0.4204084,0 0.06846,0.013293 0.1220245,0.025964 0.1948119,0.025964"
       id="path18254" />
  </g>
</svg>
